<svg width="22" height="21" viewBox="0 0 22 21" fill="none" xmlns="http://www.w3.org/2000/svg">
<g clip-path="url(#clip0)">
<path d="M11.6352 22.8984L10.6663 19.0916H5.22702L4.25808 22.8984H0.162109L5.51329 5.05839H10.3139L15.7312 22.8984H11.6352ZM8.90458 12.0003C8.83118 11.7018 8.72841 11.3037 8.59628 10.806C8.47883 10.2918 8.35405 9.76929 8.22192 9.23848C8.10447 8.70768 8.00905 8.25981 7.93564 7.89488C7.87692 8.25981 7.78149 8.71597 7.64936 9.26337C7.53192 9.79417 7.41447 10.3167 7.29702 10.8309C7.17957 11.3285 7.08415 11.7183 7.01075 12.0003L6.08585 15.5584H9.82948L8.90458 12.0003Z" fill="black" fill-opacity="0.5"/>
<path d="M22.1621 1.89844V12.5477H19.3874V7.62119C19.3874 7.42213 19.3948 7.14844 19.4094 6.8001C19.4241 6.43517 19.4388 6.08683 19.4535 5.75507C19.4682 5.40673 19.4828 5.1745 19.4975 5.05839C19.4094 5.20768 19.292 5.37356 19.1452 5.55602C18.9984 5.7219 18.8663 5.86289 18.7488 5.97901L17.89 6.75033L16.5467 4.98375L19.982 1.89844H22.1621Z" fill="black" fill-opacity="0.5"/>
</g>
<defs>
<clipPath id="clip0">
<rect width="22" height="21" fill="white"/>
</clipPath>
</defs>
</svg>
