<svg width="28" height="28" viewBox="0 0 28 28" fill="none" xmlns="http://www.w3.org/2000/svg">
<path d="M26.67 0.780273H1.83C1.23262 0.780273 0.75 1.2629 0.75 1.86027V26.7003C0.75 27.2976 1.23262 27.7803 1.83 27.7803H26.67C27.2674 27.7803 27.75 27.2976 27.75 26.7003V1.86027C27.75 1.2629 27.2674 0.780273 26.67 0.780273ZM23.5515 8.6609H21.3949C19.704 8.6609 19.3766 9.46415 19.3766 10.6454V13.2475H23.4131L22.8866 17.3211H19.3766V27.7803H15.168V17.3245H11.6479V13.2475H15.168V10.2438C15.168 6.7574 17.2976 4.85727 20.4094 4.85727C21.9011 4.85727 23.1803 4.96865 23.5549 5.01927V8.6609H23.5515Z" fill="black" fill-opacity="0.5"/>
</svg>
