<svg width="27" height="28" viewBox="0 0 27 28" fill="none" xmlns="http://www.w3.org/2000/svg">
<path d="M25.0714 0.875H1.92254C0.86183 0.875 0 1.74888 0 2.82165V25.9283C0 27.0011 0.86183 27.875 1.92254 27.875H25.0714C26.1321 27.875 27 27.0011 27 25.9283V2.82165C27 1.74888 26.1321 0.875 25.0714 0.875ZM8.16027 24.0179H4.15848V11.1326H8.1663V24.0179H8.16027ZM6.15938 9.37277C4.87567 9.37277 3.83906 8.33013 3.83906 7.05246C3.83906 5.77478 4.87567 4.73214 6.15938 4.73214C7.43705 4.73214 8.47969 5.77478 8.47969 7.05246C8.47969 8.33616 7.44308 9.37277 6.15938 9.37277ZM23.1609 24.0179H19.1592V17.75C19.1592 16.2554 19.129 14.3328 17.0799 14.3328C14.9946 14.3328 14.6752 15.96 14.6752 17.6415V24.0179H10.6734V11.1326H14.5125V12.8924H14.5667C15.1031 11.8799 16.4109 10.8132 18.3576 10.8132C22.4076 10.8132 23.1609 13.483 23.1609 16.9545V24.0179Z" fill="black" fill-opacity="0.5"/>
</svg>
