<svg width="28" height="28" viewBox="0 0 28 28" fill="none" xmlns="http://www.w3.org/2000/svg">
<path d="M9.30762 14.3701C9.30762 12.9639 9.7998 11.7686 10.7842 10.7842C11.7686 9.7998 12.9639 9.30762 14.3701 9.30762C15.7764 9.30762 16.9717 9.7998 17.9561 10.7842C18.9404 11.7686 19.4326 12.9639 19.4326 14.3701C19.4326 15.7764 18.9404 16.9717 17.9561 17.9561C16.9717 18.9404 15.7764 19.4326 14.3701 19.4326C12.9639 19.4326 11.7686 18.9404 10.7842 17.9561C9.7998 16.9717 9.30762 15.7764 9.30762 14.3701ZM27.8701 12.6826V24.4951C27.8701 25.4268 27.5405 26.2222 26.8813 26.8813C26.2222 27.5405 25.4268 27.8701 24.4951 27.8701H4.24512C3.31348 27.8701 2.51807 27.5405 1.85889 26.8813C1.19971 26.2222 0.870117 25.4268 0.870117 24.4951V4.24512C0.870117 3.31348 1.19971 2.51807 1.85889 1.85889C2.51807 1.19971 3.31348 0.870117 4.24512 0.870117H24.4951C25.4268 0.870117 26.2222 1.19971 26.8813 1.85889C27.5405 2.51807 27.8701 3.31348 27.8701 4.24512V9.30762H21.1201C20.3291 8.27051 19.3447 7.44873 18.167 6.84229C16.9893 6.23584 15.7236 5.93262 14.3701 5.93262C13.0166 5.93262 11.751 6.23584 10.5732 6.84229C9.39551 7.44873 8.41113 8.27051 7.62012 9.30762H0.870117V12.6826H6.09082C5.98535 13.2451 5.93262 13.8076 5.93262 14.3701C5.93262 15.8994 6.31055 17.3101 7.06641 18.6021C7.82227 19.894 8.84619 20.918 10.1382 21.6738C11.4302 22.4297 12.8408 22.8076 14.3701 22.8076C15.8994 22.8076 17.3101 22.4297 18.6021 21.6738C19.894 20.918 20.918 19.894 21.6738 18.6021C22.4297 17.3101 22.8076 15.8994 22.8076 14.3701C22.8076 13.8076 22.7549 13.2451 22.6494 12.6826H27.8701Z" fill="black" fill-opacity="0.5"/>
</svg>
