<svg width="27" height="28" viewBox="0 0 27 28" fill="none" xmlns="http://www.w3.org/2000/svg">
<path d="M11.1013 9.61987C11.1013 8.28795 12.1801 7.20915 13.5 7.20915C14.8199 7.20915 15.8987 8.28795 15.8987 9.61987C15.8987 10.9458 14.8199 12.0185 13.5 12.0185C12.1801 12.0185 11.1013 10.9397 11.1013 9.61987V9.61987ZM27 3.76786V24.9821C27 26.5792 25.7042 27.875 24.1071 27.875H2.89286C1.29576 27.875 0 26.5792 0 24.9821V3.76786C0 2.17076 1.29576 0.875 2.89286 0.875H24.1071C25.7042 0.875 27 2.17076 27 3.76786ZM8.61228 9.61987C8.61228 12.3078 10.806 14.4955 13.5 14.4955C16.194 14.4955 18.3877 12.3138 18.3877 9.61987C18.3877 6.91987 16.194 4.73214 13.5 4.73214C10.806 4.73214 8.61228 6.91384 8.61228 9.61987ZM19.129 15.0862C18.8518 14.5377 18.0864 14.0737 17.0739 14.8692C17.0739 14.8692 15.7058 15.954 13.5 15.954C11.2942 15.954 9.92612 14.8692 9.92612 14.8692C8.91362 14.0737 8.14821 14.5377 7.87098 15.0862C7.39487 16.0565 7.93728 16.5145 9.16071 17.3161C10.2033 17.985 11.6438 18.2321 12.5719 18.3286L11.7944 19.106C10.6975 20.1908 9.65491 21.2455 8.91964 21.9808C7.85893 23.0415 9.56451 24.7411 10.6312 23.7045L13.506 20.8176C14.6029 21.9145 15.6576 22.9692 16.3808 23.7045C17.4415 24.7411 19.1531 23.0596 18.1045 21.9808L15.2297 19.106L14.4462 18.3286C15.3804 18.2321 16.8027 17.973 17.8333 17.3161C19.0627 16.5145 19.5991 16.0504 19.129 15.0862Z" fill="black" fill-opacity="0.5"/>
</svg>
