<svg width="28" height="28" viewBox="0 0 28 28" fill="none" xmlns="http://www.w3.org/2000/svg">
<path d="M16.6568 21.4315V18.6723C16.6568 18.0865 16.4869 17.7936 16.1472 17.7936C15.948 17.7936 15.7547 17.8874 15.5672 18.0748V22.0114C15.7547 22.1989 15.948 22.2926 16.1472 22.2926C16.4869 22.2926 16.6568 22.0055 16.6568 21.4315ZM19.8904 19.2874H21.0503V18.6899C21.0503 18.0924 20.857 17.7936 20.4704 17.7936C20.0838 17.7936 19.8904 18.0924 19.8904 18.6899V19.2874ZM9.85565 14.6127V15.8429H8.44973V23.2767H7.14925V15.8429H5.77848V14.6127H9.85565ZM13.388 16.8271V23.2767H12.2106V22.5738C11.7537 23.101 11.3084 23.3646 10.8749 23.3646C10.4883 23.3646 10.2423 23.2006 10.1368 22.8725C10.0665 22.6734 10.0314 22.357 10.0314 21.9235V16.8271H11.1913V21.5721C11.1913 21.8532 11.1971 22.0055 11.2089 22.029C11.2206 22.2047 11.3084 22.2926 11.4725 22.2926C11.7068 22.2926 11.9528 22.111 12.2106 21.7478V16.8271H13.388ZM17.8167 18.7778V21.3436C17.8167 21.9528 17.7757 22.3805 17.6937 22.6265C17.5531 23.1186 17.2426 23.3646 16.7623 23.3646C16.3522 23.3646 15.9539 23.1244 15.5672 22.6441V23.2767H14.3898V14.6127H15.5672V17.4422C15.9421 16.9735 16.3405 16.7392 16.7623 16.7392C17.2426 16.7392 17.5531 16.9852 17.6937 17.4773C17.7757 17.7233 17.8167 18.1568 17.8167 18.7778ZM22.2278 21.0448V21.203C22.2278 21.5428 22.2161 21.7947 22.1926 21.9587C22.1575 22.2164 22.0696 22.4508 21.929 22.6616C21.6127 23.1303 21.1441 23.3646 20.5231 23.3646C19.9139 23.3646 19.4394 23.142 19.0996 22.6968C18.8536 22.3805 18.7305 21.8767 18.7305 21.1854V18.9184C18.7305 18.2271 18.8477 17.7233 19.082 17.407C19.4218 16.9618 19.8904 16.7392 20.488 16.7392C21.0855 16.7392 21.5424 16.9618 21.8587 17.407C22.1048 17.7468 22.2278 18.2506 22.2278 18.9184V20.254H19.8904V21.3963C19.8904 21.9938 20.0896 22.2926 20.488 22.2926C20.7691 22.2926 20.9449 22.1403 21.0152 21.8357C21.0152 21.8239 21.0181 21.7829 21.024 21.7126C21.0298 21.6424 21.0328 21.5457 21.0328 21.4227V21.0448H22.2278ZM14.3019 6.56382V9.30537C14.3019 9.90289 14.1144 10.2016 13.7395 10.2016C13.3646 10.2016 13.1771 9.90289 13.1771 9.30537V6.56382C13.1771 5.95458 13.3646 5.64997 13.7395 5.64997C14.1144 5.64997 14.3019 5.95458 14.3019 6.56382ZM23.6689 19.0941C23.6689 17.0204 23.5576 15.4973 23.335 14.5249C23.2178 14.0094 22.9659 13.5788 22.5793 13.2332C22.1926 12.8875 21.7474 12.6854 21.2436 12.6269C19.6503 12.4511 17.2368 12.3633 14.0031 12.3633C10.7812 12.3633 8.37358 12.4511 6.7802 12.6269C6.26469 12.6854 5.81655 12.8875 5.43578 13.2332C5.05501 13.5788 4.80604 14.0094 4.68888 14.5249C4.45456 15.5442 4.3374 17.0672 4.3374 19.0941C4.3374 21.1561 4.45456 22.6792 4.68888 23.6634C4.80604 24.1672 5.05501 24.5948 5.43578 24.9463C5.81655 25.2978 6.25883 25.5028 6.76262 25.5614C8.36772 25.7371 10.7812 25.825 14.0031 25.825C17.225 25.825 19.6385 25.7371 21.2436 25.5614C21.7474 25.5028 22.1897 25.2978 22.5705 24.9463C22.9513 24.5948 23.2002 24.1672 23.3174 23.6634C23.5517 22.6792 23.6689 21.1561 23.6689 19.0941ZM10.4004 7.65341L11.9821 2.45149H10.6641L9.76778 5.87843L8.83636 2.45149H7.46558C7.5476 2.72096 7.68233 3.12516 7.86979 3.6641L8.29156 4.87671C8.70163 6.08346 8.97109 7.00903 9.09997 7.65341V11.1858H10.4004V7.65341ZM15.4794 9.07691V6.79228C15.4794 6.11275 15.3563 5.6031 15.1103 5.26334C14.7705 4.81813 14.3136 4.59552 13.7395 4.59552C13.142 4.59552 12.6851 4.81813 12.3687 5.26334C12.1227 5.6031 11.9997 6.11275 11.9997 6.79228V9.07691C11.9997 9.75644 12.1227 10.2661 12.3687 10.6058C12.6851 11.0511 13.142 11.2737 13.7395 11.2737C14.3136 11.2737 14.7705 11.0511 15.1103 10.6058C15.3563 10.2895 15.4794 9.77987 15.4794 9.07691ZM18.6603 11.1858H19.8377V4.68339H18.6603V9.65685C18.4025 10.02 18.1565 10.2016 17.9221 10.2016C17.7464 10.2016 17.6527 10.1079 17.641 9.92046C17.6292 9.89703 17.6234 9.74472 17.6234 9.46354V4.68339H16.4459V9.83259C16.4459 10.2661 16.4811 10.5883 16.5514 10.7992C16.6802 11.1155 16.9321 11.2737 17.3071 11.2737C17.7288 11.2737 18.1799 11.0101 18.6603 10.4828V11.1858ZM27.5 5.84328V22.7144C27.5 24.1086 27.4954 25.8855 26.5054 26.8755C25.5154 27.8655 23.8329 27.7757 22.4387 27.7757H5.56759C4.17338 27.7757 2.35074 27.8655 1.36074 26.8755C0.370734 25.8855 0.506261 24.1086 0.506261 22.7144V5.84328C0.506261 4.44907 0.370734 2.67134 1.36074 1.68133C2.35074 0.691329 4.17338 0.781955 5.56759 0.781955H22.4387C23.8329 0.781955 25.5154 0.691329 26.5054 1.68133C27.4954 2.67134 27.5 4.44907 27.5 5.84328Z" fill="black" fill-opacity="0.5"/>
</svg>
