<svg xmlns="http://www.w3.org/2000/svg" width="38" height="38" viewBox="0 0 38 38"><g><g><g><path fill="#dec377" d="M12.515 16.632a.625.625 0 0 1-.625-.625v-1.745a5.862 5.862 0 1 1 11.724 0v1.745a.625.625 0 0 1-.625.625zm.625-1.25h9.224v-1.12a4.612 4.612 0 1 0-9.224 0z"/></g><g><path fill="#dec377" d="M31.756 19.637A9.368 9.368 0 1 1 22.02 35.25H2.619a.625.625 0 0 1-.625-.625v-3.494a.625.625 0 0 1 .625-.625h1.125V15.462H.874a.624.624 0 0 1-.616-.722C.275 14.625 2.248 3.222 17.63.26a.639.639 0 0 1 .237 0 28.433 28.433 0 0 1 6.82 2.178V.875a.625.625 0 0 1 .624-.625h5.819a.625.625 0 0 1 .625.625v6.94a15.788 15.788 0 0 1 3.486 6.924.624.624 0 0 1-.617.723h-2.869zM4.369 14.212a.625.625 0 0 1 .625.626v15.668h6.893v-9.843a.623.623 0 0 1 .625-.625h5.223l.015-.003.015.003h5.222a.618.618 0 0 1 .538.325A9.24 9.24 0 0 1 28.375 19a9.417 9.417 0 0 1 1.216.086c.263.034.524.079.784.136.043.009.088.012.131.022v-4.407a.625.625 0 0 1 .625-.625h2.7a15.834 15.834 0 0 0-3.175-5.763.625.625 0 0 1-.15-.405V1.5h-4.569v1.95a.626.626 0 0 1-.917.553 26.424 26.424 0 0 0-7.27-2.491C5.548 3.907 2.369 11.779 1.668 14.212zm17.63 7.31c.084-.077.16-.16.245-.234h-3.87v9.218h.87c-.01-.043-.013-.088-.023-.131a9.576 9.576 0 0 1-.167-1.044 9.415 9.415 0 0 1-.054-.956c0-.351.02-.703.06-1.052.012-.115.038-.227.054-.341.034-.23.067-.459.117-.683.03-.135.073-.264.11-.397.053-.199.105-.399.172-.593.048-.138.106-.27.16-.406.073-.182.144-.365.228-.542.064-.135.138-.265.208-.397.09-.17.18-.338.282-.502.08-.129.168-.253.254-.378.108-.157.217-.313.335-.464.095-.121.196-.236.297-.352a9.45 9.45 0 0 1 .388-.426c.108-.11.221-.215.335-.32zm-4.874 8.984v-9.219h-3.988v9.22zM20.877 34a9.404 9.404 0 0 1-.421-.614c-.029-.045-.054-.091-.082-.137-.173-.28-.331-.57-.473-.866l-.014-.027a9.233 9.233 0 0 1-.258-.6h-1.867l-.012.003c-.005 0-.008-.003-.012-.003H3.244V34zm13.129.236a8.125 8.125 0 0 0-5.631-13.986 8.145 8.145 0 0 0-8.072 7.19 8.116 8.116 0 0 0 8.072 9.06 8.125 8.125 0 0 0 5.63-2.264z"/></g><g><path fill="#dec377" d="M29.104 28h-1.222a1.331 1.331 0 1 1 0-2.663h2.446a.625.625 0 0 0 0-1.25h-1.332v-1.332a.625.625 0 1 0-1.25 0v1.346a2.576 2.576 0 0 0 .136 5.149h1.222a1.087 1.087 0 1 1 0 2.173h-2.69a.625.625 0 0 0 0 1.25h1.332v1.332a.625.625 0 1 0 1.25 0v-1.332h.108a2.337 2.337 0 1 0 0-4.673z"/></g></g></g></svg>