<svg width="68" height="68" viewBox="0 0 68 68" fill="none" xmlns="http://www.w3.org/2000/svg">
<g filter="url(#filter0_d)">
<path d="M33.9998 25.1078C34.369 25.1078 34.7383 24.8309 34.7383 24.3693C34.7383 23.9078 34.4614 23.6309 33.9998 23.6309C30.5844 23.6309 27.7229 26.4001 27.7229 29.9078C27.7229 33.4155 30.4921 36.1847 33.9998 36.1847C37.5075 36.1847 40.2767 33.4155 40.2767 29.9078C40.2767 29.5386 39.9998 29.1693 39.5383 29.1693C39.0767 29.1693 38.7998 29.4462 38.7998 29.9078C38.7998 32.5847 36.5844 34.8001 33.9075 34.8001C31.2306 34.8001 29.0152 32.5847 29.0152 29.9078C29.0152 27.2309 31.3229 25.1078 33.9998 25.1078Z" fill="black" fill-opacity="0.8"/>
<path d="M53.6615 14.5848C53.3845 14.7694 53.2922 15.2309 53.4768 15.5079C56.6153 19.6617 58.1845 24.6463 58.1845 29.9079C58.1845 43.3848 47.3845 54.1848 33.9999 54.1848C20.6153 54.1848 9.72299 43.3848 9.72299 30.0002C9.72299 16.6155 20.6153 5.72324 33.9999 5.72324C39.2615 5.72324 44.2461 7.38478 48.3999 10.4309C48.6768 10.6155 49.1384 10.6155 49.323 10.2463C49.5076 9.96939 49.5076 9.50785 49.1384 9.32324C44.7076 6.00016 39.4461 4.33862 33.9076 4.33862C19.8768 4.33862 8.33838 15.8771 8.33838 30.0002C8.33838 44.1232 19.7845 55.6617 33.9999 55.6617C48.2153 55.6617 59.6615 44.2155 59.6615 30.0002C59.6615 24.4617 57.9076 19.2002 54.6768 14.7694C54.3999 14.4925 53.9384 14.4002 53.6615 14.5848Z" fill="black" fill-opacity="0.8"/>
<path d="M44.8 14.9539C44.9846 14.677 44.8923 14.2154 44.6154 14.0308C41.4769 11.9077 37.8769 10.8923 34.0923 10.8923C23.5693 10.8923 14.8923 19.477 14.8923 30.0923C14.8923 40.7077 23.4769 49.2923 34.0923 49.2923C44.7077 49.2923 53.2923 40.7077 53.2923 30.0923C53.2923 26.3077 52.1846 22.7077 50.1539 19.5693C49.9693 19.2923 49.5077 19.2 49.2308 19.3846C48.9539 19.5693 48.8616 20.0308 49.0462 20.3077C50.9846 23.1693 52 26.5846 52 30.0923C52 39.877 44.0616 47.9077 34.1846 47.9077C24.3077 47.9077 16.3693 39.9693 16.3693 30.0923C16.3693 20.2154 24.3077 12.2769 34.1846 12.2769C37.6923 12.2769 41.1077 13.2923 43.9693 15.2308C44.1539 15.4154 44.5231 15.3231 44.8 14.9539Z" fill="black" fill-opacity="0.8"/>
<path d="M40.0922 19.6617C40.2769 19.2925 40.0922 18.9232 39.8153 18.7386C38.0615 17.8155 36.0307 17.354 33.9999 17.354C26.9845 17.354 21.2615 23.0771 21.2615 30.0925C21.2615 37.1078 26.9845 42.8309 33.9999 42.8309C41.0153 42.8309 46.7384 37.1078 46.7384 30.0925C46.7384 28.0617 46.2768 26.1232 45.3538 24.2771C45.1692 23.9078 44.7999 23.8155 44.4307 24.0002C44.0615 24.1848 43.9692 24.554 44.1538 24.9232C44.9845 26.4925 45.3538 28.2463 45.3538 30.0925C45.3538 36.3694 40.2769 41.4463 33.9999 41.4463C27.723 41.4463 22.6461 36.3694 22.6461 30.0925C22.6461 23.8155 27.723 18.7386 33.9999 18.7386C35.8461 18.7386 37.5076 19.2002 39.1692 19.9386C39.4461 20.1232 39.9076 19.9386 40.0922 19.6617Z" fill="black" fill-opacity="0.8"/>
<path d="M60.7695 8.1232H56.8926L60.308 4.61551C60.5849 4.33859 60.5849 3.87705 60.308 3.60012C60.0311 3.3232 59.6618 3.41551 59.3849 3.69243L55.9695 7.10782V3.23089C55.9695 2.86166 55.6926 2.49243 55.2311 2.49243C54.7695 2.49243 54.4926 2.76935 54.4926 3.23089V8.49243L33.5387 29.5386C33.2618 29.8155 33.2618 30.277 33.5387 30.554C33.6311 30.6463 33.8157 30.7386 34.0003 30.7386C34.1849 30.7386 34.3695 30.6463 34.4618 30.554L55.508 9.50782H60.7695C61.1387 9.50782 61.508 9.23089 61.508 8.76935C61.508 8.30782 61.1387 8.1232 60.7695 8.1232Z" fill="black" fill-opacity="0.8"/>
</g>
<defs>
<filter id="filter0_d" x="0" y="0" width="68" height="68" filterUnits="userSpaceOnUse" color-interpolation-filters="sRGB">
<feFlood flood-opacity="0" result="BackgroundImageFix"/>
<feColorMatrix in="SourceAlpha" type="matrix" values="0 0 0 0 0 0 0 0 0 0 0 0 0 0 0 0 0 0 127 0"/>
<feOffset dy="4"/>
<feGaussianBlur stdDeviation="2"/>
<feColorMatrix type="matrix" values="0 0 0 0 0 0 0 0 0 0 0 0 0 0 0 0 0 0 0.25 0"/>
<feBlend mode="normal" in2="BackgroundImageFix" result="effect1_dropShadow"/>
<feBlend mode="normal" in="SourceGraphic" in2="effect1_dropShadow" result="shape"/>
</filter>
</defs>
</svg>
